PathFileType	4	(X/Y/Z)	D:\Share\Shared_Data\Ergonomics\Sit To Stand Pertubation\S3\Unperturbed.trc
DataRate	CameraRate	NumFrames	NumMarkers	Units	OrigDataRate	OrigDataStartFrame	OrigNumFrames	
100	100	17	18	m	100	5682	251
Frame#	Time	R_Thigh			R_ASIS			R_Pelvis			V_Sacral			L_Pelvis			L_ASIS			Clavical			R_Acromium			L_Acromium			Sternum			Torso			R_Thigh_Med			R_Thigh_Lat			R_Shank_Med			R_Shank_Lat			R_Shank			R_Heel			R_Toe			
		X1	Y1	Z1	X2	Y2	Z2	X3	Y3	Z3	X4	Y4	Z4	X5	Y5	Z5	X6	Y6	Z6	X7	Y7	Z7	X8	Y8	Z8	X9	Y9	Z9	X10	Y10	Z10	X11	Y11	Z11	X12	Y12	Z12	X13	Y13	Z13	X14	Y14	Z14	X15	Y15	Z15	X16	Y16	Z16	X17	Y17	Z17	X18	Y18	Z18	

5682	56.81	0.13955795	0.58438361	0.11767657	-0.043589405	0.65513483	0.15020569	-0.14822139	0.62302332	0.20450522	-0.25720361	0.60549146	0.020202469	-0.15171364	0.64171979	-0.18862279	-0.046022663	0.65074213	-0.12682159	-0.12822818	1.0325603	0.002309011	-0.18010857	1.086235	0.17823521	-0.17768854	1.0848657	-0.15040602	-0.094255051	0.96351526	0.0095895615	-0.12237358	1.0205983	-0.058929474	0.3253519	0.47117905	0.079111176	0.30916254	0.44999881	0.19627043	0.25875952	0.1079456	0.09442495	0.23478401	0.099390755	0.17349391	0.25401607	0.27292691	0.19863805	0.18077599	0.050653694	0.11880008	0.39784326	0.056367672	0.13964969
5683	56.82	0.13959506	0.5843717	0.11771014	-0.043539364	0.6551261	0.15018695	-0.14818648	0.62302783	0.20446176	-0.25714804	0.60551263	0.02016473	-0.15166087	0.64172101	-0.18865877	-0.045966587	0.65073004	-0.12684676	-0.12807701	1.0325735	0.0022701995	-0.17995169	1.0862489	0.17819501	-0.17748106	1.0848922	-0.15041483	-0.094117081	0.96352325	0.0095424995	-0.12221876	1.0206131	-0.058961823	0.32540811	0.4711582	0.079224449	0.30916806	0.44999234	0.19636238	0.25877127	0.10795409	0.094439987	0.23474719	0.099403595	0.17348952	0.25402197	0.27291632	0.19868587	0.18077682	0.050653725	0.11879823	0.39784171	0.056372509	0.13965604
5684	56.83	0.13964342	0.58435791	0.11773682	-0.04347731	0.65511566	0.15016809	-0.14814185	0.62303284	0.20443156	-0.25708994	0.6055343	0.020136814	-0.15162186	0.64171674	-0.18869016	-0.045918877	0.65071423	-0.1268768	-0.12791808	1.0325809	0.0022361033	-0.17977991	1.0862576	0.17816197	-0.17725673	1.0849094	-0.15042189	-0.093974205	0.96352411	0.0095035181	-0.12205433	1.020619	-0.058986656	0.32547134	0.47113477	0.079317596	0.30918573	0.4499798	0.19643797	0.25878275	0.10796024	0.094448402	0.23473746	0.099406174	0.17349014	0.25403204	0.27290573	0.19872119	0.18077829	0.050650108	0.11879148	0.39784137	0.056375446	0.13965984
5685	56.84	0.13970064	0.58434277	0.11775716	-0.043403008	0.65510492	0.1501489	-0.14808664	0.62304272	0.20441786	-0.25702985	0.60556042	0.020120661	-0.15159593	0.64170966	-0.18871574	-0.04588065	0.65069519	-0.12691033	-0.12775083	1.0325846	0.0022084923	-0.17959476	1.0862635	0.17813702	-0.17702257	1.0849198	-0.15042975	-0.093825134	0.96351874	0.0094735518	-0.12188037	1.0206175	-0.059003983	0.32553888	0.47111111	0.079390266	0.30921466	0.44996207	0.19649844	0.25879364	0.10796418	0.094451202	0.23475423	0.09939933	0.17349646	0.25404518	0.27289584	0.19874507	0.18078058	0.050643608	0.11878082	0.39784232	0.056376984	0.13966127
5686	56.85	0.13976364	0.5843266	0.11777121	-0.043316635	0.65509491	0.15012892	-0.14802074	0.62306171	0.20442334	-0.2569682	0.60559406	0.020117846	-0.15158176	0.64170251	-0.18873433	-0.045852367	0.65067365	-0.12694548	-0.1275745	1.0325852	0.0021884382	-0.17939728	1.0862684	0.17812032	-0.17678458	1.0849259	-0.15044035	-0.09366758	0.96350854	0.0094528399	-0.12169732	1.0206093	-0.059015545	0.32560742	0.47108911	0.079442764	0.30925351	0.44994064	0.19654492	0.25880365	0.10796613	0.094449272	0.23479642	0.099384247	0.17350865	0.25406096	0.27288745	0.19875893	0.18078325	0.050636631	0.11876846	0.39784445	0.0563778	0.13966023
5687	56.86	0.13982922	0.58430951	0.11777856	-0.043218784	0.65508594	0.15010774	-0.14794496	0.62309296	0.20444963	-0.25690561	0.6056377	0.020129467	-0.15157784	0.64169751	-0.18874515	-0.04583408	0.65065009	-0.12698029	-0.12738814	1.0325846	0.0021762247	-0.17918839	1.086275	0.17811087	-0.17654688	1.0849299	-0.15045522	-0.093498764	0.96349536	0.0094409552	-0.12150582	1.0205956	-0.059024181	0.32567438	0.47106985	0.079476646	0.30930103	0.44991708	0.19657823	0.2588125	0.10796648	0.094443283	0.23486163	0.099362602	0.17352602	0.25407922	0.27288126	0.1987643	0.18078561	0.050632408	0.1187572	0.39784747	0.056378525	0.13965675
5688	56.87	0.13989468	0.58429211	0.11777869	-0.043110588	0.65507776	0.15008534	-0.14786038	0.62313739	0.20449548	-0.25684268	0.60569281	0.020155914	-0.15158284	0.64169623	-0.18874828	-0.045825771	0.65062543	-0.12701302	-0.12719053	1.0325835	0.0021713192	-0.17896892	1.0862845	0.17810626	-0.17631139	1.0849347	-0.15047549	-0.093316109	0.96348138	0.0094368572	-0.12130617	1.0205784	-0.059032478	0.32573849	0.47105353	0.079494438	0.3093555	0.44989301	0.19659906	0.25882001	0.10796568	0.094433815	0.23494377	0.099337296	0.17354604	0.2541002	0.27287787	0.19876247	0.18078687	0.050633636	0.11874935	0.39785071	0.056379513	0.13965097
5689	56.88	0.1399583	0.5842749	0.11777143	-0.042994011	0.65507013	0.15006204	-0.14776703	0.62319324	0.20455438	-0.25677975	0.60575977	0.020196651	-0.15159593	0.64169928	-0.18874467	-0.04582729	0.65060065	-0.12704252	-0.12698036	1.0325828	0.0021720717	-0.17873935	1.086298	0.17810306	-0.17607745	1.0849426	-0.15050081	-0.093117973	0.96346851	0.0094388132	-0.12109792	1.0205612	-0.059041996	0.32579901	0.47103998	0.079498711	0.30941479	0.44986996	0.19660811	0.25882608	0.10796418	0.094421371	0.23503142	0.099312927	0.17356409	0.25412384	0.2728775	0.19875458	0.18078648	0.050641136	0.11874581	0.39785352	0.056380882	0.13964348
5690	56.89	0.14001915	0.58425836	0.11775706	-0.042871925	0.65506281	0.15003821	-0.14766299	0.62325513	0.20461325	-0.25671729	0.60583789	0.020250277	-0.15161646	0.64170654	-0.18873564	-0.045837959	0.65057697	-0.1270683	-0.12675623	1.0325835	0.002175653	-0.17849908	1.0863164	0.17809805	-0.1758419	1.0849556	-0.15052942	-0.092904259	0.96345807	0.0094442663	-0.1208797	1.0205476	-0.059053711	0.32585553	0.47102856	0.079491577	0.30947638	0.44984933	0.19660634	0.25883054	0.10796237	0.094406532	0.23510971	0.099294518	0.1735753	0.25414946	0.27288019	0.19874168	0.18078444	0.050653717	0.11874603	0.39785522	0.056382668	0.13963486
5691	56.9	0.1400768	0.58424304	0.1177365	-0.042747932	0.65505573	0.15001447	-0.14754573	0.62331671	0.20465717	-0.25665549	0.60592584	0.020314796	-0.15164345	0.64171722	-0.18872218	-0.04585664	0.65055463	-0.12709032	-0.12651658	1.0325861	0.0021787937	-0.17824692	1.0863402	0.17808914	-0.17559988	1.0849757	-0.15055934	-0.092676117	0.96345032	0.0094500675	-0.12064936	1.0205402	-0.059068638	0.32590704	0.47101855	0.079474854	0.30953748	0.44983224	0.19659509	0.2588334	0.10796064	0.094389984	0.23516583	0.099285362	0.1735766	0.25417596	0.2728858	0.19872493	0.18078096	0.050669159	0.11874879	0.39785547	0.056385063	0.1396255
5692	56.91	0.14013078	0.584229	0.11771123	-0.042625942	0.65504919	0.14999152	-0.14741498	0.62337335	0.20467769	-0.25659436	0.60602234	0.020387867	-0.1516757	0.64173004	-0.18870494	-0.045881741	0.65053387	-0.12710871	-0.12625961	1.0325922	0.0021789553	-0.17798192	1.0863693	0.17807535	-0.17534552	1.0850045	-0.15058876	-0.092434998	0.96344543	0.0094531231	-0.12040408	1.0205411	-0.059087696	0.32595248	0.47100934	0.079450363	0.3095957	0.4498194	0.19657625	0.25883475	0.10795943	0.094372559	0.2351924	0.099286369	0.17356755	0.25420164	0.27289392	0.19870552	0.18077673	0.050684875	0.11875256	0.39785422	0.056388569	0.13961546
5693	56.92	0.14018018	0.58421582	0.11768324	-0.042509277	0.6550434	0.14997006	-0.14727486	0.62342468	0.20467789	-0.25653384	0.6061264	0.020466726	-0.15171143	0.6417442	-0.18868433	-0.045910919	0.65051453	-0.12712373	-0.12598305	1.0326028	0.0021750426	-0.17770367	1.0864042	0.1780564	-0.17507173	1.085043	-0.15061548	-0.092181602	0.96344379	0.0094509325	-0.12014043	1.020551	-0.059111305	0.32599072	0.47100021	0.079420418	0.30964938	0.44981107	0.19655232	0.25883459	0.10795895	0.094355125	0.23518816	0.099296646	0.17354956	0.25422481	0.27290393	0.1986848	0.18077246	0.050698345	0.11875555	0.39785168	0.05639394	0.13960451
5694	56.93	0.14022363	0.58420312	0.11765468	-0.042399876	0.65503821	0.14995061	-0.14713237	0.62347284	0.20466815	-0.25647385	0.60623743	0.020548006	-0.15174821	0.64175879	-0.18866063	-0.04594096	0.65049689	-0.12713592	-0.12568408	1.032619	0.0021672964	-0.17741196	1.0864451	0.17803238	-0.17477115	1.0850919	-0.15063704	-0.091915543	0.96344617	0.0094417934	-0.119854	1.0205709	-0.059139221	0.32602139	0.47099088	0.079387733	0.30969696	0.44980692	0.196526	0.25883298	0.10795914	0.094338531	0.23515817	0.099313675	0.17352557	0.25424385	0.27291492	0.19866388	0.1807688	0.050707985	0.11875618	0.39784811	0.056401852	0.13959238
5695	56.94	0.1402599	0.58419055	0.11762759	-0.042298172	0.65503284	0.14993329	-0.14699438	0.62351935	0.20465807	-0.25641431	0.6063548	0.020627935	-0.1517829	0.64177393	-0.18863411	-0.045968163	0.6504809	-0.12714581	-0.12535943	1.0326409	0.0021564374	-0.17710632	1.0864917	0.17800331	-0.17443816	1.0851521	-0.15065309	-0.091635284	0.96345258	0.0094248714	-0.11953967	1.0206006	-0.059170746	0.32604431	0.47098141	0.079355042	0.30973697	0.44980658	0.19649995	0.25882968	0.10795972	0.094323303	0.23511417	0.099333305	0.17349977	0.25425768	0.27292609	0.19864372	0.18076604	0.050713551	0.11875362	0.39784372	0.056412613	0.13957887
5696	56.95	0.14028775	0.58417786	0.11760376	-0.042203331	0.65502643	0.14991812	-0.14686571	0.62356488	0.20465195	-0.25635532	0.60647925	0.020702879	-0.15181174	0.64179016	-0.18860538	-0.045988838	0.65046649	-0.12715368	-0.12500533	1.0326678	0.0021424363	-0.17678606	1.0865439	0.1779689	-0.17407039	1.0852223	-0.1506674	-0.091338272	0.96346271	0.0094001913	-0.11919246	1.020639	-0.059205303	0.32605917	0.47097256	0.079324821	0.30976761	0.4498092	0.19647629	0.25882471	0.10796054	0.094309738	0.23507004	0.099351303	0.17347643	0.25426552	0.27293658	0.19862532	0.18076411	0.050715836	0.1187479	0.39783862	0.056425903	0.13956404
5697	56.96	0.14030608	0.58416553	0.11758497	-0.042113724	0.65501819	0.14990503	-0.14674913	0.62360938	0.20464969	-0.25629749	0.6066123	0.020769812	-0.1518308	0.64180878	-0.18857549	-0.045999451	0.65045312	-0.12715958	-0.12461767	1.0326997	0.0021241879	-0.17645	1.0866018	0.1779286	-0.17366734	1.0853	-0.15068689	-0.091020523	0.96347577	0.0093686419	-0.11880848	1.0206841	-0.059242924	0.32606509	0.47096527	0.079299385	0.30978726	0.44981409	0.19645685	0.25881824	0.10796181	0.094298096	0.23503537	0.099365494	0.17345802	0.25426689	0.27294595	0.19860994	0.18076277	0.050716713	0.11874031	0.3978327	0.056440964	0.13954823
5698	56.97	0.14031378	0.58415381	0.11757288	-0.042027321	0.65500757	0.14989389	-0.14664583	0.62365375	0.204649	-0.25624109	0.60675677	0.020826305	-0.15183658	0.64183197	-0.18854602	-0.045996719	0.65044025	-0.12716354	-0.12419173	1.0327363	0.0021008425	-0.17609566	1.0866664	0.1778819	-0.17322681	1.0853832	-0.150718	-0.0906763	0.96349127	0.0093319111	-0.11838476	1.0207336	-0.059284191	0.3260611	0.4709603	0.079281067	0.30979465	0.44982034	0.19644351	0.25881094	0.10796396	0.09428862	0.23501544	0.099375481	0.17344569	0.2542612	0.27295361	0.19859904	0.18076158	0.050718781	0.11873322	0.39782593	0.056456871	0.13953218
